<svg xmlns="http://www.w3.org/2000/svg" xmlns:xlink="http://www.w3.org/1999/xlink" width="56" zoomAndPan="magnify" viewBox="0 0 42 42" height="56" preserveAspectRatio="xMidYMid meet" version="1.0"><defs><clipPath id="c2133de153"><path d="M 0.488281 0 L 41.511719 0 L 41.511719 41.023438 L 0.488281 41.023438 Z M 0.488281 0 " clip-rule="nonzero"/></clipPath></defs><g clip-path="url(#c2133de153)"><path fill="#1a4789" d="M 41.511719 34.785156 C 41.511719 38.226562 38.722656 41.019531 35.277344 41.019531 L 6.722656 41.019531 C 3.28125 41.019531 0.488281 38.226562 0.488281 34.785156 L 0.488281 6.230469 C 0.488281 2.789062 3.28125 -0.00390625 6.722656 -0.00390625 L 35.277344 -0.00390625 C 38.722656 -0.00390625 41.511719 2.789062 41.511719 6.230469 Z M 41.511719 34.785156 " fill-opacity="1" fill-rule="nonzero"/></g><path fill="#ffffff" d="M 27.671875 23.695312 L 28.335938 18.550781 L 23.242188 18.550781 L 23.242188 15.265625 C 23.242188 13.777344 23.65625 12.761719 25.792969 12.761719 L 28.511719 12.761719 L 28.511719 8.160156 C 28.042969 8.097656 26.425781 7.957031 24.542969 7.957031 C 20.617188 7.957031 17.929688 10.355469 17.929688 14.757812 L 17.929688 18.550781 L 13.488281 18.550781 L 13.488281 23.695312 L 17.929688 23.695312 L 17.929688 36.890625 L 23.242188 36.890625 L 23.242188 23.695312 Z M 27.671875 23.695312 " fill-opacity="1" fill-rule="nonzero"/></svg>